STARTFONT 2.1
FONT -Monotype-Times New Roman-Bold-I-Normal--10-100-75-75-P-59-iso8859-5
SIZE 10 75 75
FONTBOUNDINGBOX 15 12 -2 -2

STARTPROPERTIES 24
FOUNDRY "Monotype"
FAMILY_NAME "Times New Roman"
WEIGHT_NAME "Bold"
SLANT "I"
SETWIDTH_NAME "Normal"
ADD_STYLE_NAME ""
PIXEL_SIZE 10
POINT_SIZE 100
RESOLUTION_X 75
RESOLUTION_Y 75
SPACING "P"
AVERAGE_WIDTH 59
CHARSET_REGISTRY "iso8859"
CHARSET_ENCODING "5"
FACE_NAME "Times New Roman Bold Inclined ISO Latin Cyrillic"
_DEC_DEVICE_FONTNAMES "PS=timesnewroman-bin-latcyrillic"
COPYRIGHT "Copyright (c) 1994 Monotype Typography Ltd."
CAP_HEIGHT 8
X_HEIGHT 5
WEIGHT 10
QUAD_WIDTH 7
DEFAULT_CHAR 160
FONT_DESCENT 3
FONT_ASCENT 10
ENDPROPERTIES

CHARS 191

STARTCHAR space
ENCODING 32
SWIDTH 250 0
DWIDTH 3 0
BBX 0 0 0 0
BITMAP
ENDCHAR

STARTCHAR exclam
ENCODING 33
SWIDTH 271 0
DWIDTH 3 0
BBX 3 7 0 0
BITMAP
60
60
60
40
00
C0
C0
ENDCHAR

STARTCHAR quotedbl
ENCODING 34
SWIDTH 552 0
DWIDTH 6 0
BBX 5 3 1 4
BITMAP
D8
D8
48
ENDCHAR

STARTCHAR numbersign
ENCODING 35
SWIDTH 667 0
DWIDTH 7 0
BBX 5 7 1 -1
BITMAP
48
48
F8
90
F8
90
90
ENDCHAR

STARTCHAR dollar
ENCODING 36
SWIDTH 500 0
DWIDTH 5 0
BBX 5 9 0 -1
BITMAP
08
38
68
68
30
58
58
F0
40
ENDCHAR

STARTCHAR percent
ENCODING 37
SWIDTH 875 0
DWIDTH 9 0
BBX 8 7 0 0
BITMAP
41
A2
A4
5A
25
45
82
ENDCHAR

STARTCHAR ampersand
ENCODING 38
SWIDTH 719 0
DWIDTH 7 0
BBX 6 7 1 0
BITMAP
30
68
30
74
D8
D8
EC
ENDCHAR

STARTCHAR quoteright
ENCODING 39
SWIDTH 271 0
DWIDTH 3 0
BBX 2 3 1 4
BITMAP
C0
40
80
ENDCHAR

STARTCHAR parenleft
ENCODING 40
SWIDTH 500 0
DWIDTH 5 0
BBX 4 9 1 -2
BITMAP
10
20
60
C0
C0
C0
C0
C0
40
ENDCHAR

STARTCHAR parenright
ENCODING 41
SWIDTH 500 0
DWIDTH 5 0
BBX 4 9 0 -2
BITMAP
20
30
30
30
30
30
60
40
80
ENDCHAR

STARTCHAR asterisk
ENCODING 42
SWIDTH 500 0
DWIDTH 5 0
BBX 5 4 0 3
BITMAP
20
F8
20
50
ENDCHAR

STARTCHAR plus
ENCODING 43
SWIDTH 667 0
DWIDTH 7 0
BBX 5 5 1 0
BITMAP
20
20
F8
20
20
ENDCHAR

STARTCHAR comma
ENCODING 44
SWIDTH 271 0
DWIDTH 3 0
BBX 2 3 0 -2
BITMAP
C0
40
80
ENDCHAR

STARTCHAR minus
ENCODING 45
SWIDTH 667 0
DWIDTH 7 0
BBX 5 1 1 2
BITMAP
F8
ENDCHAR

STARTCHAR period
ENCODING 46
SWIDTH 271 0
DWIDTH 3 0
BBX 2 2 0 0
BITMAP
C0
C0
ENDCHAR

STARTCHAR slash
ENCODING 47
SWIDTH 281 0
DWIDTH 3 0
BBX 3 7 0 0
BITMAP
20
20
40
40
40
80
80
ENDCHAR

STARTCHAR zero
ENCODING 48
SWIDTH 500 0
DWIDTH 5 0
BBX 5 7 0 0
BITMAP
30
58
D8
D8
D8
D0
60
ENDCHAR

STARTCHAR one
ENCODING 49
SWIDTH 500 0
DWIDTH 5 0
BBX 4 7 0 0
BITMAP
10
70
30
30
60
60
F0
ENDCHAR

STARTCHAR two
ENCODING 50
SWIDTH 500 0
DWIDTH 5 0
BBX 5 7 0 0
BITMAP
30
58
18
10
20
78
F0
ENDCHAR

STARTCHAR three
ENCODING 51
SWIDTH 500 0
DWIDTH 5 0
BBX 5 7 0 0
BITMAP
30
58
18
70
30
B0
60
ENDCHAR

STARTCHAR four
ENCODING 52
SWIDTH 500 0
DWIDTH 5 0
BBX 5 7 0 0
BITMAP
18
38
58
B0
F8
60
60
ENDCHAR

STARTCHAR five
ENCODING 53
SWIDTH 500 0
DWIDTH 5 0
BBX 5 7 0 0
BITMAP
38
60
70
18
18
30
E0
ENDCHAR

STARTCHAR six
ENCODING 54
SWIDTH 500 0
DWIDTH 5 0
BBX 5 7 0 0
BITMAP
18
60
70
D8
D8
D0
60
ENDCHAR

STARTCHAR seven
ENCODING 55
SWIDTH 500 0
DWIDTH 5 0
BBX 5 7 0 0
BITMAP
78
78
90
10
20
20
40
ENDCHAR

STARTCHAR eight
ENCODING 56
SWIDTH 500 0
DWIDTH 5 0
BBX 6 7 0 0
BITMAP
38
6C
6C
30
D8
D8
70
ENDCHAR

STARTCHAR nine
ENCODING 57
SWIDTH 500 0
DWIDTH 5 0
BBX 5 7 0 0
BITMAP
30
58
D8
D8
70
30
C0
ENDCHAR

STARTCHAR colon
ENCODING 58
SWIDTH 333 0
DWIDTH 3 0
BBX 3 5 0 0
BITMAP
60
60
00
C0
C0
ENDCHAR

STARTCHAR semicolon
ENCODING 59
SWIDTH 333 0
DWIDTH 3 0
BBX 3 7 0 -2
BITMAP
60
60
00
00
C0
40
80
ENDCHAR

STARTCHAR less
ENCODING 60
SWIDTH 667 0
DWIDTH 7 0
BBX 5 5 1 0
BITMAP
08
30
C0
30
08
ENDCHAR

STARTCHAR equal
ENCODING 61
SWIDTH 667 0
DWIDTH 7 0
BBX 5 3 1 1
BITMAP
F8
00
F8
ENDCHAR

STARTCHAR greater
ENCODING 62
SWIDTH 667 0
DWIDTH 7 0
BBX 5 5 1 0
BITMAP
80
60
18
60
80
ENDCHAR

STARTCHAR question
ENCODING 63
SWIDTH 385 0
DWIDTH 4 0
BBX 4 7 0 0
BITMAP
60
B0
30
60
00
C0
C0
ENDCHAR

STARTCHAR at
ENCODING 64
SWIDTH 958 0
DWIDTH 9 0
BBX 9 9 0 -2
BITMAP
1F00
6080
4E80
9680
AC80
B500
4680
6100
1E00
ENDCHAR

STARTCHAR A
ENCODING 65
SWIDTH 719 0
DWIDTH 7 0
BBX 7 7 0 0
BITMAP
02
06
0E
16
3C
4C
DE
ENDCHAR

STARTCHAR B
ENCODING 66
SWIDTH 667 0
DWIDTH 7 0
BBX 7 7 0 0
BITMAP
7C
36
36
38
6C
6C
F8
ENDCHAR

STARTCHAR C
ENCODING 67
SWIDTH 719 0
DWIDTH 7 0
BBX 6 7 1 0
BITMAP
1C
24
40
C0
C0
C8
70
ENDCHAR

STARTCHAR D
ENCODING 68
SWIDTH 771 0
DWIDTH 8 0
BBX 8 7 0 0
BITMAP
7E
33
33
33
62
64
F8
ENDCHAR

STARTCHAR E
ENCODING 69
SWIDTH 667 0
DWIDTH 7 0
BBX 7 7 0 0
BITMAP
7E
32
30
38
60
62
FC
ENDCHAR

STARTCHAR F
ENCODING 70
SWIDTH 604 0
DWIDTH 6 0
BBX 7 7 0 0
BITMAP
7E
32
30
38
60
60
F0
ENDCHAR

STARTCHAR G
ENCODING 71
SWIDTH 719 0
DWIDTH 7 0
BBX 6 7 1 0
BITMAP
1C
24
40
C0
DC
C8
70
ENDCHAR

STARTCHAR H
ENCODING 72
SWIDTH 823 0
DWIDTH 8 0
BBX 9 7 0 0
BITMAP
7B80
3300
3300
3E00
6600
6600
EF00
ENDCHAR

STARTCHAR I
ENCODING 73
SWIDTH 385 0
DWIDTH 4 0
BBX 5 7 0 0
BITMAP
78
30
30
30
60
60
F0
ENDCHAR

STARTCHAR J
ENCODING 74
SWIDTH 500 0
DWIDTH 5 0
BBX 6 7 0 0
BITMAP
3C
18
18
18
30
B0
60
ENDCHAR

STARTCHAR K
ENCODING 75
SWIDTH 719 0
DWIDTH 7 0
BBX 8 7 0 0
BITMAP
7B
32
34
38
6C
6C
E6
ENDCHAR

STARTCHAR L
ENCODING 76
SWIDTH 667 0
DWIDTH 7 0
BBX 7 7 0 0
BITMAP
78
30
30
30
60
62
FC
ENDCHAR

STARTCHAR M
ENCODING 77
SWIDTH 990 0
DWIDTH 10 0
BBX 11 7 0 0
BITMAP
70E0
30C0
39C0
3B80
5D80
4980
EBC0
ENDCHAR

STARTCHAR N
ENCODING 78
SWIDTH 771 0
DWIDTH 8 0
BBX 9 7 0 0
BITMAP
6380
3100
3900
2A00
4E00
4600
E200
ENDCHAR

STARTCHAR O
ENCODING 79
SWIDTH 771 0
DWIDTH 8 0
BBX 7 7 1 0
BITMAP
1C
26
46
C6
C4
C8
70
ENDCHAR

STARTCHAR P
ENCODING 80
SWIDTH 667 0
DWIDTH 7 0
BBX 7 7 0 0
BITMAP
7C
36
36
3C
60
60
F0
ENDCHAR

STARTCHAR Q
ENCODING 81
SWIDTH 771 0
DWIDTH 8 0
BBX 7 9 1 -2
BITMAP
1C
26
46
C6
C4
C8
70
42
FC
ENDCHAR

STARTCHAR R
ENCODING 82
SWIDTH 719 0
DWIDTH 7 0
BBX 7 7 0 0
BITMAP
7C
36
36
38
6C
6C
E6
ENDCHAR

STARTCHAR S
ENCODING 83
SWIDTH 604 0
DWIDTH 6 0
BBX 7 7 0 0
BITMAP
1A
34
30
18
0C
4C
B8
ENDCHAR

STARTCHAR T
ENCODING 84
SWIDTH 667 0
DWIDTH 7 0
BBX 6 7 1 0
BITMAP
7C
B4
30
30
60
60
F0
ENDCHAR

STARTCHAR U
ENCODING 85
SWIDTH 771 0
DWIDTH 8 0
BBX 8 7 1 0
BITMAP
F7
62
62
62
C4
C4
78
ENDCHAR

STARTCHAR V
ENCODING 86
SWIDTH 719 0
DWIDTH 7 0
BBX 8 7 1 0
BITMAP
F7
62
64
68
70
60
40
ENDCHAR

STARTCHAR W
ENCODING 87
SWIDTH 990 0
DWIDTH 10 0
BBX 10 7 1 0
BITMAP
EEC0
6C80
6D00
6D00
7E00
6C00
4800
ENDCHAR

STARTCHAR X
ENCODING 88
SWIDTH 719 0
DWIDTH 7 0
BBX 8 7 0 0
BITMAP
7B
32
34
18
2C
4C
DE
ENDCHAR

STARTCHAR Y
ENCODING 89
SWIDTH 719 0
DWIDTH 7 0
BBX 7 7 1 0
BITMAP
F6
64
68
30
60
60
F0
ENDCHAR

STARTCHAR Z
ENCODING 90
SWIDTH 719 0
DWIDTH 7 0
BBX 8 7 0 0
BITMAP
1F
26
0C
18
30
64
F8
ENDCHAR

STARTCHAR bracketleft
ENCODING 91
SWIDTH 500 0
DWIDTH 5 0
BBX 6 9 0 -2
BITMAP
1C
18
30
30
30
60
60
C0
E0
ENDCHAR

STARTCHAR backslash
ENCODING 92
SWIDTH 281 0
DWIDTH 3 0
BBX 4 7 0 0
BITMAP
C0
C0
60
60
60
30
30
ENDCHAR

STARTCHAR bracketright
ENCODING 93
SWIDTH 500 0
DWIDTH 5 0
BBX 6 9 -1 -2
BITMAP
1C
0C
18
18
30
30
30
60
E0
ENDCHAR

STARTCHAR asciicircum
ENCODING 94
SWIDTH 510 0
DWIDTH 6 0
BBX 5 4 1 3
BITMAP
20
20
50
88
ENDCHAR

STARTCHAR underscore
ENCODING 95
SWIDTH 500 0
DWIDTH 5 0
BBX 5 1 0 -2
BITMAP
F8
ENDCHAR

STARTCHAR quoteleft
ENCODING 96
SWIDTH 271 0
DWIDTH 3 0
BBX 2 3 1 4
BITMAP
40
80
C0
ENDCHAR

STARTCHAR a
ENCODING 97
SWIDTH 500 0
DWIDTH 5 0
BBX 5 5 0 0
BITMAP
38
58
98
B0
D8
ENDCHAR

STARTCHAR b
ENCODING 98
SWIDTH 500 0
DWIDTH 5 0
BBX 5 7 0 0
BITMAP
70
30
78
68
68
D0
E0
ENDCHAR

STARTCHAR c
ENCODING 99
SWIDTH 437 0
DWIDTH 4 0
BBX 4 5 0 0
BITMAP
30
50
C0
C0
60
ENDCHAR

STARTCHAR d
ENCODING 100
SWIDTH 500 0
DWIDTH 5 0
BBX 6 7 0 0
BITMAP
1C
0C
38
58
98
B0
D8
ENDCHAR

STARTCHAR e
ENCODING 101
SWIDTH 437 0
DWIDTH 4 0
BBX 4 5 0 0
BITMAP
30
50
E0
C0
60
ENDCHAR

STARTCHAR f
ENCODING 102
SWIDTH 333 0
DWIDTH 3 0
BBX 7 9 -2 -2
BITMAP
0E
18
3C
18
18
30
30
30
E0
ENDCHAR

STARTCHAR g
ENCODING 103
SWIDTH 500 0
DWIDTH 5 0
BBX 6 7 -1 -2
BITMAP
3C
6C
78
20
70
D8
70
ENDCHAR

STARTCHAR h
ENCODING 104
SWIDTH 500 0
DWIDTH 5 0
BBX 5 7 0 0
BITMAP
70
30
68
78
68
D0
D8
ENDCHAR

STARTCHAR i
ENCODING 105
SWIDTH 271 0
DWIDTH 3 0
BBX 3 7 0 0
BITMAP
60
00
E0
60
60
C0
E0
ENDCHAR

STARTCHAR j
ENCODING 106
SWIDTH 271 0
DWIDTH 3 0
BBX 5 9 -2 -2
BITMAP
18
00
38
18
18
30
30
30
E0
ENDCHAR

STARTCHAR k
ENCODING 107
SWIDTH 552 0
DWIDTH 6 0
BBX 6 7 0 0
BITMAP
70
30
6C
68
70
D8
CC
ENDCHAR

STARTCHAR l
ENCODING 108
SWIDTH 271 0
DWIDTH 3 0
BBX 4 7 0 0
BITMAP
70
30
60
60
60
C0
E0
ENDCHAR

STARTCHAR m
ENCODING 109
SWIDTH 771 0
DWIDTH 8 0
BBX 8 5 0 0
BITMAP
EB
7F
6B
D6
D7
ENDCHAR

STARTCHAR n
ENCODING 110
SWIDTH 500 0
DWIDTH 5 0
BBX 5 5 0 0
BITMAP
E8
78
68
D0
D8
ENDCHAR

STARTCHAR o
ENCODING 111
SWIDTH 500 0
DWIDTH 5 0
BBX 5 5 0 0
BITMAP
30
58
D8
D0
60
ENDCHAR

STARTCHAR p
ENCODING 112
SWIDTH 500 0
DWIDTH 5 0
BBX 6 7 -1 -2
BITMAP
7C
34
34
68
70
60
F0
ENDCHAR

STARTCHAR q
ENCODING 113
SWIDTH 500 0
DWIDTH 5 0
BBX 5 7 0 -2
BITMAP
38
58
98
B0
F0
30
78
ENDCHAR

STARTCHAR r
ENCODING 114
SWIDTH 385 0
DWIDTH 4 0
BBX 5 5 0 0
BITMAP
E8
78
60
C0
C0
ENDCHAR

STARTCHAR s
ENCODING 115
SWIDTH 385 0
DWIDTH 4 0
BBX 5 5 -1 0
BITMAP
38
60
30
30
E0
ENDCHAR

STARTCHAR t
ENCODING 116
SWIDTH 333 0
DWIDTH 3 0
BBX 4 6 0 0
BITMAP
20
F0
60
60
C0
E0
ENDCHAR

STARTCHAR u
ENCODING 117
SWIDTH 500 0
DWIDTH 5 0
BBX 5 5 0 0
BITMAP
E8
68
68
D0
E8
ENDCHAR

STARTCHAR v
ENCODING 118
SWIDTH 438 0
DWIDTH 4 0
BBX 5 5 0 0
BITMAP
E8
68
70
60
40
ENDCHAR

STARTCHAR w
ENCODING 119
SWIDTH 667 0
DWIDTH 7 0
BBX 7 5 0 0
BITMAP
EA
6A
7C
68
48
ENDCHAR

STARTCHAR x
ENCODING 120
SWIDTH 552 0
DWIDTH 6 0
BBX 6 5 0 0
BITMAP
6C
68
30
58
D8
ENDCHAR

STARTCHAR y
ENCODING 121
SWIDTH 500 0
DWIDTH 5 0
BBX 6 7 -1 -2
BITMAP
74
34
34
38
30
20
C0
ENDCHAR

STARTCHAR z
ENCODING 122
SWIDTH 437 0
DWIDTH 4 0
BBX 4 6 0 -1
BITMAP
70
70
A0
40
D0
60
ENDCHAR

STARTCHAR braceleft
ENCODING 123
SWIDTH 396 0
DWIDTH 4 0
BBX 4 10 0 -2
BITMAP
30
60
60
60
60
C0
60
60
60
30
ENDCHAR

STARTCHAR bar
ENCODING 124
SWIDTH 219 0
DWIDTH 2 0
BBX 1 9 1 -2
BITMAP
80
80
80
80
80
80
80
80
80
ENDCHAR

STARTCHAR braceright
ENCODING 125
SWIDTH 396 0
DWIDTH 4 0
BBX 4 9 0 -2
BITMAP
C0
60
60
60
30
60
60
60
C0
ENDCHAR

STARTCHAR asciitilde
ENCODING 126
SWIDTH 667 0
DWIDTH 6 0
BBX 6 2 0 2
BITMAP
64
98
ENDCHAR

STARTCHAR space
ENCODING 160
SWIDTH 250 0
DWIDTH 3 0
BBX 0 0 0 0
BITMAP
ENDCHAR

STARTCHAR afii10023
ENCODING 161
SWIDTH 667 0
DWIDTH 7 0
BBX 7 9 0 0
BITMAP
14
00
7E
32
30
38
60
62
FC
ENDCHAR

STARTCHAR afii10051
ENCODING 162
SWIDTH 820 0
DWIDTH 8 0
BBX 8 7 0 0
BITMAP
7C
B4
32
3F
63
62
F4
ENDCHAR

STARTCHAR afii10052
ENCODING 163
SWIDTH 634 0
DWIDTH 6 0
BBX 7 10 0 0
BITMAP
04
08
00
7E
32
30
30
60
60
F0
ENDCHAR

STARTCHAR afii10053
ENCODING 164
SWIDTH 695 0
DWIDTH 7 0
BBX 6 7 1 0
BITMAP
0C
34
60
78
C0
C8
70
ENDCHAR

STARTCHAR afii10054
ENCODING 165
SWIDTH 604 0
DWIDTH 6 0
BBX 7 7 0 0
BITMAP
1A
34
30
18
0C
4C
B8
ENDCHAR

STARTCHAR afii10055
ENCODING 166
SWIDTH 385 0
DWIDTH 4 0
BBX 5 7 0 0
BITMAP
78
30
30
30
60
60
F0
ENDCHAR

STARTCHAR afii10056
ENCODING 167
SWIDTH 385 0
DWIDTH 4 0
BBX 5 9 0 0
BITMAP
28
00
78
30
30
30
60
60
F0
ENDCHAR

STARTCHAR afii10057
ENCODING 168
SWIDTH 500 0
DWIDTH 5 0
BBX 6 7 0 0
BITMAP
3C
18
18
18
30
B0
60
ENDCHAR

STARTCHAR afii10058
ENCODING 169
SWIDTH 948 0
DWIDTH 9 0
BBX 9 7 -1 0
BITMAP
3F00
1600
1600
1700
2D80
2D80
DF00
ENDCHAR

STARTCHAR afii10059
ENCODING 170
SWIDTH 1011 0
DWIDTH 10 0
BBX 10 7 0 0
BITMAP
7B80
3300
3300
3F80
66C0
66C0
EF80
ENDCHAR

STARTCHAR afii10060
ENCODING 171
SWIDTH 804 0
DWIDTH 8 0
BBX 8 7 0 0
BITMAP
7E
B0
37
3B
66
66
F7
ENDCHAR

STARTCHAR afii10061
ENCODING 172
SWIDTH 717 0
DWIDTH 7 0
BBX 8 10 0 0
BITMAP
02
04
00
7B
35
34
38
6C
6C
E6
ENDCHAR

STARTCHAR hyphen
ENCODING 173
SWIDTH 333 0
DWIDTH 3 0
BBX 3 1 0 2
BITMAP
E0
ENDCHAR

STARTCHAR afii10062
ENCODING 174
SWIDTH 711 0
DWIDTH 7 0
BBX 7 10 1 0
BITMAP
24
18
00
EE
64
68
68
30
A0
C0
ENDCHAR

STARTCHAR afii10145
ENCODING 175
SWIDTH 808 0
DWIDTH 8 0
BBX 9 8 0 -1
BITMAP
7380
3300
3300
3300
6600
6600
FF00
1000
ENDCHAR

STARTCHAR afii10017
ENCODING 176
SWIDTH 719 0
DWIDTH 7 0
BBX 7 7 0 0
BITMAP
02
06
0E
16
3C
4C
DE
ENDCHAR

STARTCHAR afii10018
ENCODING 177
SWIDTH 667 0
DWIDTH 7 0
BBX 7 7 0 0
BITMAP
7E
32
30
3C
66
66
FC
ENDCHAR

STARTCHAR afii10019
ENCODING 178
SWIDTH 667 0
DWIDTH 7 0
BBX 7 7 0 0
BITMAP
7C
36
36
38
6C
6C
F8
ENDCHAR

STARTCHAR afii10020
ENCODING 179
SWIDTH 619 0
DWIDTH 6 0
BBX 7 7 0 0
BITMAP
7E
32
30
30
60
60
F0
ENDCHAR

STARTCHAR afii10021
ENCODING 180
SWIDTH 707 0
DWIDTH 7 0
BBX 9 9 -1 -2
BITMAP
1F80
0B00
1300
1300
1600
2600
7E00
8200
8200
ENDCHAR

STARTCHAR afii10022
ENCODING 181
SWIDTH 667 0
DWIDTH 7 0
BBX 7 7 0 0
BITMAP
7E
32
30
38
60
62
FC
ENDCHAR

STARTCHAR afii10024
ENCODING 182
SWIDTH 953 0
DWIDTH 10 0
BBX 10 7 0 0
BITMAP
36C0
1680
1680
3F00
6D80
6D80
EDC0
ENDCHAR

STARTCHAR afii10025
ENCODING 183
SWIDTH 538 0
DWIDTH 5 0
BBX 5 7 0 0
BITMAP
70
58
18
60
30
B0
60
ENDCHAR

STARTCHAR afii10026
ENCODING 184
SWIDTH 812 0
DWIDTH 8 0
BBX 9 7 0 0
BITMAP
7B80
3300
3700
3B00
7600
6600
EF00
ENDCHAR

STARTCHAR afii10027
ENCODING 185
SWIDTH 812 0
DWIDTH 8 0
BBX 9 10 0 0
BITMAP
0900
0600
0000
7B80
3300
3700
3B00
7600
6600
EF00
ENDCHAR

STARTCHAR afii10028
ENCODING 186
SWIDTH 717 0
DWIDTH 7 0
BBX 8 7 0 0
BITMAP
7B
35
34
38
6C
6C
E6
ENDCHAR

STARTCHAR afii10029
ENCODING 187
SWIDTH 723 0
DWIDTH 7 0
BBX 8 7 0 0
BITMAP
3F
16
16
16
2C
AC
DE
ENDCHAR

STARTCHAR afii10030
ENCODING 188
SWIDTH 990 0
DWIDTH 10 0
BBX 11 7 0 0
BITMAP
70E0
30C0
39C0
3B80
5D80
4980
EBC0
ENDCHAR

STARTCHAR afii10031
ENCODING 189
SWIDTH 823 0
DWIDTH 8 0
BBX 9 7 0 0
BITMAP
7B80
3300
3300
3E00
6600
6600
EF00
ENDCHAR

STARTCHAR afii10032
ENCODING 190
SWIDTH 771 0
DWIDTH 8 0
BBX 7 7 1 0
BITMAP
1C
26
46
C6
C4
C8
70
ENDCHAR

STARTCHAR afii10033
ENCODING 191
SWIDTH 811 0
DWIDTH 8 0
BBX 9 7 0 0
BITMAP
7F80
3300
3300
3300
6600
6600
E700
ENDCHAR

STARTCHAR afii10034
ENCODING 192
SWIDTH 667 0
DWIDTH 7 0
BBX 7 7 0 0
BITMAP
7C
36
36
3C
60
60
F0
ENDCHAR

STARTCHAR afii10035
ENCODING 193
SWIDTH 719 0
DWIDTH 7 0
BBX 6 7 1 0
BITMAP
1C
24
40
C0
C0
C8
70
ENDCHAR

STARTCHAR afii10036
ENCODING 194
SWIDTH 667 0
DWIDTH 7 0
BBX 6 7 1 0
BITMAP
7C
B4
30
30
60
60
F0
ENDCHAR

STARTCHAR afii10037
ENCODING 195
SWIDTH 711 0
DWIDTH 7 0
BBX 7 7 1 0
BITMAP
EE
64
68
68
30
A0
C0
ENDCHAR

STARTCHAR afii10038
ENCODING 196
SWIDTH 862 0
DWIDTH 9 0
BBX 8 7 0 0
BITMAP
1E
0C
7E
DB
7E
30
78
ENDCHAR

STARTCHAR afii10039
ENCODING 197
SWIDTH 719 0
DWIDTH 7 0
BBX 8 7 0 0
BITMAP
7B
32
34
18
2C
4C
DE
ENDCHAR

STARTCHAR afii10040
ENCODING 198
SWIDTH 808 0
DWIDTH 8 0
BBX 9 9 0 -2
BITMAP
7380
3300
3300
3300
6600
6600
FF00
0200
0200
ENDCHAR

STARTCHAR afii10041
ENCODING 199
SWIDTH 749 0
DWIDTH 7 0
BBX 7 7 1 0
BITMAP
EE
6C
CC
78
18
18
3C
ENDCHAR

STARTCHAR afii10042
ENCODING 200
SWIDTH 1162 0
DWIDTH 12 0
BBX 13 7 0 0
BITMAP
7B78
3330
3330
3330
6660
6660
FFF0
ENDCHAR

STARTCHAR afii10043
ENCODING 201
SWIDTH 1162 0
DWIDTH 12 0
BBX 13 9 0 -2
BITMAP
7B78
3330
3330
3330
6660
6660
FFF0
0020
0020
ENDCHAR

STARTCHAR afii10044
ENCODING 202
SWIDTH 738 0
DWIDTH 7 0
BBX 7 7 0 0
BITMAP
7C
B0
30
3C
66
66
FC
ENDCHAR

STARTCHAR afii10045
ENCODING 203
SWIDTH 998 0
DWIDTH 10 0
BBX 11 7 0 0
BITMAP
79E0
30C0
30C0
38C0
6D80
6D80
FBC0
ENDCHAR

STARTCHAR afii10046
ENCODING 204
SWIDTH 662 0
DWIDTH 7 0
BBX 6 7 0 0
BITMAP
78
30
30
38
6C
6C
F8
ENDCHAR

STARTCHAR afii10047
ENCODING 205
SWIDTH 693 0
DWIDTH 7 0
BBX 6 7 1 0
BITMAP
38
4C
0C
7C
18
98
60
ENDCHAR

STARTCHAR afii10048
ENCODING 206
SWIDTH 1118 0
DWIDTH 11 0
BBX 11 7 0 0
BITMAP
78C0
3160
3260
3E60
6640
6680
F300
ENDCHAR

STARTCHAR afii10049
ENCODING 207
SWIDTH 708 0
DWIDTH 7 0
BBX 9 7 -1 0
BITMAP
0F80
3300
3300
1F00
3600
6600
CF00
ENDCHAR

STARTCHAR afii10065
ENCODING 208
SWIDTH 500 0
DWIDTH 5 0
BBX 5 5 0 0
BITMAP
38
58
98
B0
D8
ENDCHAR

STARTCHAR afii10066
ENCODING 209
SWIDTH 495 0
DWIDTH 5 0
BBX 5 7 0 0
BITMAP
38
40
70
D8
D8
D0
60
ENDCHAR

STARTCHAR afii10067
ENCODING 210
SWIDTH 458 0
DWIDTH 5 0
BBX 5 5 0 0
BITMAP
38
68
F0
D0
60
ENDCHAR

STARTCHAR afii10068
ENCODING 211
SWIDTH 398 0
DWIDTH 4 0
BBX 4 5 0 0
BITMAP
60
30
60
C0
70
ENDCHAR

STARTCHAR afii10069
ENCODING 212
SWIDTH 496 0
DWIDTH 5 0
BBX 5 7 0 0
BITMAP
20
10
38
58
D8
D0
60
ENDCHAR

STARTCHAR afii10070
ENCODING 213
SWIDTH 437 0
DWIDTH 4 0
BBX 4 5 0 0
BITMAP
30
50
E0
C0
60
ENDCHAR

STARTCHAR afii10072
ENCODING 214
SWIDTH 982 0
DWIDTH 10 0
BBX 10 5 0 0
BITMAP
64C0
3540
3F00
AB00
C980
ENDCHAR

STARTCHAR afii10073
ENCODING 215
SWIDTH 416 0
DWIDTH 4 0
BBX 4 5 0 0
BITMAP
60
30
60
30
E0
ENDCHAR

STARTCHAR afii10074
ENCODING 216
SWIDTH 500 0
DWIDTH 5 0
BBX 5 5 0 0
BITMAP
E8
68
68
D0
E8
ENDCHAR

STARTCHAR afii10075
ENCODING 217
SWIDTH 500 0
DWIDTH 5 0
BBX 5 8 0 0
BITMAP
28
10
00
E8
68
68
D0
E8
ENDCHAR

STARTCHAR afii10076
ENCODING 218
SWIDTH 493 0
DWIDTH 5 0
BBX 6 5 0 0
BITMAP
EC
68
70
D8
D8
ENDCHAR

STARTCHAR afii10077
ENCODING 219
SWIDTH 482 0
DWIDTH 5 0
BBX 6 5 -1 0
BITMAP
3C
2C
2C
58
DC
ENDCHAR

STARTCHAR afii10078
ENCODING 220
SWIDTH 652 0
DWIDTH 7 0
BBX 8 5 -1 0
BITMAP
73
37
3B
56
D7
ENDCHAR

STARTCHAR afii10079
ENCODING 221
SWIDTH 512 0
DWIDTH 5 0
BBX 5 5 0 0
BITMAP
E8
68
78
D0
D8
ENDCHAR

STARTCHAR afii10080
ENCODING 222
SWIDTH 500 0
DWIDTH 5 0
BBX 5 5 0 0
BITMAP
30
58
D8
D0
60
ENDCHAR

STARTCHAR afii10081
ENCODING 223
SWIDTH 500 0
DWIDTH 5 0
BBX 5 5 0 0
BITMAP
E8
78
68
D0
D8
ENDCHAR

STARTCHAR afii10082
ENCODING 224
SWIDTH 500 0
DWIDTH 5 0
BBX 6 7 -1 -2
BITMAP
7C
34
34
68
70
60
F0
ENDCHAR

STARTCHAR afii10083
ENCODING 225
SWIDTH 437 0
DWIDTH 4 0
BBX 4 5 0 0
BITMAP
30
50
C0
C0
60
ENDCHAR

STARTCHAR afii10084
ENCODING 226
SWIDTH 771 0
DWIDTH 8 0
BBX 8 5 0 0
BITMAP
EB
7F
6B
D6
D7
ENDCHAR

STARTCHAR afii10085
ENCODING 227
SWIDTH 500 0
DWIDTH 5 0
BBX 6 7 -1 -2
BITMAP
74
34
34
38
30
20
C0
ENDCHAR

STARTCHAR afii10086
ENCODING 228
SWIDTH 714 0
DWIDTH 7 0
BBX 7 9 0 -2
BITMAP
1C
0C
18
7C
DA
DA
7C
30
78
ENDCHAR

STARTCHAR afii10087
ENCODING 229
SWIDTH 552 0
DWIDTH 6 0
BBX 6 5 0 0
BITMAP
6C
68
30
58
D8
ENDCHAR

STARTCHAR afii10088
ENCODING 230
SWIDTH 501 0
DWIDTH 5 0
BBX 5 7 0 -2
BITMAP
E8
68
68
D0
E8
08
10
ENDCHAR

STARTCHAR afii10089
ENCODING 231
SWIDTH 486 0
DWIDTH 5 0
BBX 5 5 0 0
BITMAP
D8
58
78
30
38
ENDCHAR

STARTCHAR afii10090
ENCODING 232
SWIDTH 776 0
DWIDTH 8 0
BBX 8 5 0 0
BITMAP
EB
6B
D6
FE
DB
ENDCHAR

STARTCHAR afii10091
ENCODING 233
SWIDTH 776 0
DWIDTH 8 0
BBX 8 7 0 -2
BITMAP
EB
6B
D6
FE
D3
02
04
ENDCHAR

STARTCHAR afii10092
ENCODING 234
SWIDTH 523 0
DWIDTH 5 0
BBX 5 5 0 0
BITMAP
70
B0
68
68
30
ENDCHAR

STARTCHAR afii10093
ENCODING 235
SWIDTH 667 0
DWIDTH 7 0
BBX 7 5 0 0
BITMAP
EE
66
F6
DC
6E
ENDCHAR

STARTCHAR afii10094
ENCODING 236
SWIDTH 449 0
DWIDTH 4 0
BBX 4 5 0 0
BITMAP
E0
60
F0
D0
60
ENDCHAR

STARTCHAR afii10095
ENCODING 237
SWIDTH 415 0
DWIDTH 4 0
BBX 4 5 0 0
BITMAP
70
10
70
30
E0
ENDCHAR

STARTCHAR afii10096
ENCODING 238
SWIDTH 693 0
DWIDTH 7 0
BBX 7 5 0 0
BITMAP
E4
6A
7A
DA
CC
ENDCHAR

STARTCHAR afii10097
ENCODING 239
SWIDTH 494 0
DWIDTH 5 0
BBX 5 5 0 0
BITMAP
38
58
78
B0
B8
ENDCHAR

STARTCHAR afii61352
ENCODING 240
SWIDTH 1000 0
DWIDTH 10 0
BBX 11 7 -1 0
BITMAP
30C0
1900
1940
3AA0
2EA0
2C40
C5C0
ENDCHAR

STARTCHAR afii10071
ENCODING 241
SWIDTH 437 0
DWIDTH 4 0
BBX 5 7 0 0
BITMAP
28
00
30
50
E0
C0
60
ENDCHAR

STARTCHAR afii10099
ENCODING 242
SWIDTH 472 0
DWIDTH 5 0
BBX 5 9 0 -2
BITMAP
78
30
68
78
68
D0
D0
20
20
ENDCHAR

STARTCHAR afii10100
ENCODING 243
SWIDTH 406 0
DWIDTH 4 0
BBX 5 8 0 0
BITMAP
08
10
00
F0
68
60
C0
C0
ENDCHAR

STARTCHAR afii10101
ENCODING 244
SWIDTH 426 0
DWIDTH 4 0
BBX 4 5 0 0
BITMAP
30
40
E0
C0
E0
ENDCHAR

STARTCHAR afii10102
ENCODING 245
SWIDTH 385 0
DWIDTH 4 0
BBX 5 5 -1 0
BITMAP
38
60
30
30
E0
ENDCHAR

STARTCHAR afii10103
ENCODING 246
SWIDTH 271 0
DWIDTH 3 0
BBX 3 8 0 0
BITMAP
60
60
00
E0
60
60
C0
E0
ENDCHAR

STARTCHAR afii10104
ENCODING 247
SWIDTH 271 0
DWIDTH 3 0
BBX 4 7 0 0
BITMAP
50
00
E0
60
60
C0
E0
ENDCHAR

STARTCHAR afii10105
ENCODING 248
SWIDTH 271 0
DWIDTH 3 0
BBX 5 10 -2 -2
BITMAP
18
18
00
38
18
18
30
30
30
E0
ENDCHAR

STARTCHAR afii10106
ENCODING 249
SWIDTH 679 0
DWIDTH 7 0
BBX 7 5 -1 0
BITMAP
1C
2C
2E
5A
DC
ENDCHAR

STARTCHAR afii10107
ENCODING 250
SWIDTH 709 0
DWIDTH 7 0
BBX 7 5 0 0
BITMAP
EC
6C
7E
DA
DC
ENDCHAR

STARTCHAR afii10108
ENCODING 251
SWIDTH 500 0
DWIDTH 5 0
BBX 5 7 0 0
BITMAP
78
30
68
78
68
D0
D0
ENDCHAR

STARTCHAR afii10109
ENCODING 252
SWIDTH 495 0
DWIDTH 5 0
BBX 6 8 0 0
BITMAP
04
08
00
EC
68
70
D8
D8
ENDCHAR

STARTCHAR section
ENCODING 253
SWIDTH 604 0
DWIDTH 6 0
BBX 5 10 0 -2
BITMAP
30
68
60
30
D8
D8
60
30
B0
60
ENDCHAR

STARTCHAR afii10110
ENCODING 254
SWIDTH 500 0
DWIDTH 5 0
BBX 6 10 -1 -2
BITMAP
14
18
00
74
34
34
38
30
20
C0
ENDCHAR

STARTCHAR afii10193
ENCODING 255
SWIDTH 501 0
DWIDTH 5 0
BBX 5 7 0 -2
BITMAP
E8
68
68
D0
E8
40
80
ENDCHAR
ENDFONT
